grf
version=1
nRows=15
nColumns=37
inDegrees=no
endheader
time	ground_force_1_vx	ground_force_1_vy	ground_force_1_vz	ground_force_1_px	ground_force_1_py	ground_force_1_pz	ground_moment_1_mx	ground_moment_1_my	ground_moment_1_mz	ground_force_2_vx	ground_force_2_vy	ground_force_2_vz	ground_force_2_px	ground_force_2_py	ground_force_2_pz	ground_moment_2_mx	ground_moment_2_my	ground_moment_2_mz	ground_force_3_vx	ground_force_3_vy	ground_force_3_vz	ground_force_3_px	ground_force_3_py	ground_force_3_pz	ground_moment_3_mx	ground_moment_3_my	ground_moment_3_mz	ground_force_4_vx	ground_force_4_vy	ground_force_4_vz	ground_force_4_px	ground_force_4_py	ground_force_4_pz	ground_moment_4_mx	ground_moment_4_my	ground_moment_4_mz
      4.86000000	      0.00000000	     -0.00000000	      0.00000000	      0.00000000	      0.00000000	      0.00000000	      0.00000000	      0.00000000	      0.00000000	      3.19576979	     26.25172043	   -675.94610596	   -318.23282525	  -1004.83427327	      0.00000000	      0.00000000	     -0.00000000	  -1005.57903537	     -2.01797109	     -6.03747493	    -53.89426804	   -245.88197301	   -742.88383711	      0.00000000	     -0.00000000	      0.00000000	     92.64283559	      0.00000000	     -0.00000000	      0.00000000	      0.00000000	      0.00000000	      0.00000000	      0.00000000	      0.00000000	      0.00000000
      4.87000000	      0.00000000	     -0.00000000	      0.00000000	      0.00000000	      0.00000000	      0.00000000	      0.00000000	      0.00000000	      0.00000000	      1.75792289	     26.63944244	   -671.97686768	   -316.88431360	  -1005.74402110	      0.00000000	      0.00000000	      0.00000000	  -1128.96175014	     -2.05614134	     -7.77230817	    -59.54224396	   -245.90048515	   -737.53027110	      0.00000000	      0.00000000	      0.00000000	     15.50971372	      0.00000000	     -0.00000000	      0.00000000	      0.00000000	      0.00000000	      0.00000000	      0.00000000	      0.00000000	      0.00000000
      4.88000000	      0.00000000	     -0.00000000	      0.00000000	      0.00000000	      0.00000000	      0.00000000	      0.00000000	      0.00000000	      0.00000000	     -0.22063635	     27.16912079	   -666.55566406	   -315.98159410	  -1005.05735232	      0.00000000	     -0.00000000	     -0.00000000	  -1135.40913909	     -2.58834063	     -9.45604683	    -65.94999695	   -246.18970692	   -730.73915483	      0.00000000	      0.00000000	     -0.00000000	    -63.46129195	      0.00000000	     -0.00000000	      0.00000000	      0.00000000	      0.00000000	      0.00000000	      0.00000000	      0.00000000	      0.00000000
      4.89000000	      0.00000000	     -0.00000000	      0.00000000	      0.00000000	      0.00000000	      0.00000000	      0.00000000	      0.00000000	      0.00000000	     -0.61764568	     27.51450539	   -659.24603271	   -315.44666014	  -1003.66630664	      0.00000000	      0.00000000	     -0.00000000	   -843.82589707	     -0.39656958	    -12.66118714	    -77.34743500	   -261.40738669	   -724.25208831	      0.00000000	      0.00000000	      0.00000000	    108.79141199	      0.00000000	     -0.00000000	      0.00000000	      0.00000000	      0.00000000	      0.00000000	      0.00000000	      0.00000000	      0.00000000
      4.90000000	      0.00000000	     -0.00000000	      0.00000000	      0.00000000	      0.00000000	      0.00000000	      0.00000000	      0.00000000	      0.00000000	     -0.94635260	     27.12665749	   -653.44439697	   -314.80992857	  -1005.03856312	      0.00000000	      0.00000000	     -0.00000000	   -947.17430854	      0.05754029	    -15.67948723	    -91.08611298	   -269.80669638	   -727.07516146	      0.00000000	      0.00000000	      0.00000000	     22.60030952	      0.00000000	     -0.00000000	      0.00000000	      0.00000000	      0.00000000	      0.00000000	      0.00000000	      0.00000000	      0.00000000
      4.91000000	      0.00000000	     -0.00000000	      0.00000000	      0.00000000	      0.00000000	      0.00000000	      0.00000000	      0.00000000	      0.00000000	      0.22478789	     26.92090225	   -641.85028076	   -315.07722073	  -1003.52184223	      0.00000000	      0.00000000	     -0.00000000	   -765.60493341	     -0.28165277	    -17.60691640	   -105.68810272	   -272.92309306	   -726.05128142	      0.00000000	      0.00000000	      0.00000000	     78.91157994	      0.00000000	     -0.00000000	      0.00000000	      0.00000000	      0.00000000	      0.00000000	      0.00000000	      0.00000000	      0.00000000
      4.92000000	      0.00000000	     -0.00000000	      0.00000000	      0.00000000	      0.00000000	      0.00000000	      0.00000000	      0.00000000	      0.00000000	      2.48251629	     26.90507126	   -630.82818604	   -314.69826382	  -1003.74833073	      0.00000000	      0.00000000	     -0.00000000	   -363.81443955	     -1.09541434	    -19.71110907	   -122.44616699	   -278.13874700	   -725.95389188	      0.00000000	      0.00000000	     -0.00000000	    -23.20321518	      0.00000000	     -0.00000000	      0.00000000	      0.00000000	      0.00000000	      0.00000000	      0.00000000	      0.00000000	      0.00000000
      4.93000000	      0.00000000	     -0.00000000	      0.00000000	      0.00000000	      0.00000000	      0.00000000	      0.00000000	      0.00000000	      0.00000000	      3.41794300	     27.20007515	   -618.23614502	   -314.60699814	  -1004.90431941	      0.00000000	      0.00000000	     -0.00000000	   -294.19416185	     -1.10709964	    -20.25629225	   -137.06311035	   -279.89412641	   -724.12762851	      0.00000000	      0.00000000	     -0.00000000	   -205.66928176	      0.00000000	     -0.00000000	      0.00000000	      0.00000000	      0.00000000	      0.00000000	      0.00000000	      0.00000000	      0.00000000
      4.94000000	      0.00000000	     -0.00000000	      0.00000000	      0.00000000	      0.00000000	      0.00000000	      0.00000000	      0.00000000	      0.00000000	      3.53791785	     27.58471107	   -599.81121826	   -314.26436927	  -1003.33571639	      0.00000000	      0.00000000	     -0.00000000	   -314.17629491	     -0.99113605	    -20.22566596	   -153.00122070	   -281.98554461	   -722.10289087	      0.00000000	      0.00000000	     -0.00000000	   -558.35846585	      0.00000000	     -0.00000000	      0.00000000	      0.00000000	      0.00000000	      0.00000000	      0.00000000	      0.00000000	      0.00000000
      4.95000000	      0.00000000	     -0.00000000	      0.00000000	      0.00000000	      0.00000000	      0.00000000	      0.00000000	      0.00000000	      0.00000000	      2.28912616	     26.51720810	   -585.09179688	   -313.39474391	  -1003.95784916	      0.00000000	      0.00000000	     -0.00000000	   -281.54470256	     -1.41937426	    -19.50392138	   -164.45040894	   -284.01213527	   -724.77931393	      0.00000000	      0.00000000	     -0.00000000	   -590.77681047	      0.00000000	     -0.00000000	      0.00000000	      0.00000000	      0.00000000	      0.00000000	      0.00000000	      0.00000000	      0.00000000
      4.96000000	      0.00000000	     -0.00000000	      0.00000000	      0.00000000	      0.00000000	      0.00000000	      0.00000000	      0.00000000	      0.00000000	      0.90721273	     25.11967850	   -568.91308594	   -311.76830991	  -1003.48390657	      0.00000000	      0.00000000	     -0.00000000	   -231.78731278	     -2.30648207	    -19.04958705	   -174.82383728	   -283.72434217	   -727.50064045	      0.00000000	      0.00000000	     -0.00000000	   -993.91617327	      0.00000000	     -0.00000000	      0.00000000	      0.00000000	      0.00000000	      0.00000000	      0.00000000	      0.00000000	      0.00000000
      4.97000000	      0.00000000	     -0.00000000	      0.00000000	      0.00000000	      0.00000000	      0.00000000	      0.00000000	      0.00000000	      0.00000000	      0.02904202	     24.07919502	   -553.07568359	   -310.75087027	  -1002.52890221	      0.00000000	      0.00000000	     -0.00000000	   -305.79389247	     -3.19552535	    -18.47427340	   -184.06236267	   -283.58569624	   -728.32208940	      0.00000000	     -0.00000000	     -0.00000000	  -1014.52837731	      0.00000000	     -0.00000000	      0.00000000	      0.00000000	      0.00000000	      0.00000000	      0.00000000	      0.00000000	      0.00000000
      4.98000000	      0.00000000	     -0.00000000	      0.00000000	      0.00000000	      0.00000000	      0.00000000	      0.00000000	      0.00000000	      0.00000000	     -0.38677090	     23.24808311	   -540.53845215	   -309.61215838	  -1004.20893360	      0.00000000	      0.00000000	     -0.00000000	   -145.03408158	     -4.67161249	    -18.96216352	   -196.05152893	   -284.99053611	   -724.99552551	      0.00000000	      0.00000000	     -0.00000000	  -1094.03196607	      0.00000000	     -0.00000000	      0.00000000	      0.00000000	      0.00000000	      0.00000000	      0.00000000	      0.00000000	      0.00000000
      4.99000000	      0.00000000	     -0.00000000	      0.00000000	      0.00000000	      0.00000000	      0.00000000	      0.00000000	      0.00000000	      0.00000000	     -0.34214467	     22.43108177	   -527.94415283	   -309.01863746	  -1004.80248622	      0.00000000	      0.00000000	     -0.00000000	    -34.27114756	     -5.26387634	    -20.66837265	   -205.76812744	   -286.22477549	   -723.89801043	      0.00000000	      0.00000000	     -0.00000000	   -987.31868058	      0.00000000	     -0.00000000	      0.00000000	      0.00000000	      0.00000000	      0.00000000	      0.00000000	      0.00000000	      0.00000000
      5.00000000	      0.00000000	     -0.00000000	      0.00000000	      0.00000000	      0.00000000	      0.00000000	      0.00000000	      0.00000000	      0.00000000	      0.01482494	     21.80706406	   -513.99523926	   -308.80580737	  -1003.81512090	      0.00000000	      0.00000000	      0.00000000	      5.34652999	     -5.64770902	    -23.30273579	   -215.31184387	   -286.74102939	   -725.95236602	      0.00000000	      0.00000000	     -0.00000000	  -1079.20658081	      0.00000000	     -0.00000000	      0.00000000	      0.00000000	      0.00000000	      0.00000000	      0.00000000	      0.00000000	      0.00000000
